<?xml version="1.0" encoding="utf-8"?>
<!-- Generator: Adobe Illustrator 24.2.3, SVG Export Plug-In . SVG Version: 6.00 Build 0)  -->
<svg version="1.1" id="Layer_1" xmlns="http://www.w3.org/2000/svg" xmlns:xlink="http://www.w3.org/1999/xlink" x="0px" y="0px"
	 viewBox="0 0 128 128" style="enable-background:new 0 0 128 128;" xml:space="preserve">
<style type="text/css">
	.st0{fill:#98ED0C;}
</style>
<path class="st0" d="M19.9,19.3L19.9,19.3L19.9,19.3C7.9,31.1,1.1,47.3,1.1,64.1c0,13.8,4.5,27.2,12.9,38.1c0.1,0.1,0.2,0.2,0.3,0.1
	c0.1-0.1,0.1-0.2,0.1-0.3C9.6,87.1,34.1,51.2,46.8,36.1c0,0,0.1-0.1,0.1-0.2c0-0.1-0.1-0.1-0.1-0.2C25.5,14.5,19.8,19.4,19.9,19.3"
	/>
<path class="st0" d="M108.2,19.3L108.2,19.3L108.2,19.3c12.1,11.9,18.8,28,18.8,44.8c0,13.8-4.5,27.2-12.9,38.1
	c-0.1,0.1-0.2,0.2-0.3,0.1c-0.1-0.1-0.1-0.2-0.1-0.3c4.8-14.8-19.7-50.8-32.4-65.9c0,0-0.1-0.1-0.1-0.2c0-0.1,0-0.2,0.1-0.2
	C102.7,14.5,108.4,19.3,108.2,19.3"/>
<path class="st0" d="M64.1,1.2c12.7,0,23.1,3.5,32.8,9.2c0.1,0.1,0.1,0.2,0.1,0.3c0,0.1-0.2,0.1-0.3,0.1C84.5,8.2,66,18.7,64.2,19.7
	c0,0-0.1,0-0.1,0c-0.1,0-0.1,0-0.1,0c-4.7-2.7-21.8-11.6-32.5-8.9c-0.1,0-0.2,0-0.3-0.1s0-0.2,0.1-0.3C40.8,4.7,51.4,1.2,64.1,1.2"
	/>
<path class="st0" d="M64.1,51.6c0.1,0,0.1,0.1,0.2,0.1c18.8,14.3,51,49.7,41.2,59.7l0,0v0h0C94,121.5,79.3,127.1,64.1,127
	c-15.2,0-30-5.5-41.4-15.6l0,0l0,0c-9.8-10,22.4-45.4,41.2-59.7C63.9,51.7,64,51.6,64.1,51.6"/>
</svg>
