<?xml version="1.0" encoding="utf-8"?>
<!-- Generator: Adobe Illustrator 24.2.3, SVG Export Plug-In . SVG Version: 6.00 Build 0)  -->
<svg version="1.1" id="Layer_1" xmlns="http://www.w3.org/2000/svg" xmlns:xlink="http://www.w3.org/1999/xlink" x="0px" y="0px"
	 viewBox="0 0 512 512" style="enable-background:new 0 0 512 512;" xml:space="preserve">
<style type="text/css">
	.st0{fill:#98ED0C;}
</style>
<g id="line_icons">
	<path class="st0" d="M256,498.2C122.3,498.2,13.8,389.7,13.8,256S122.3,13.8,256,13.8S498.2,122.3,498.2,256
		C498,389.7,389.7,498,256,498.2z M256,27.7C129.9,27.7,27.7,129.9,27.7,256S129.9,484.3,256,484.3S484.3,382.1,484.3,256
		C484.2,130,382,27.8,256,27.7z"/>
	<path class="st0" d="M256,298.3c-23.4,0-42.3-18.9-42.3-42.3c0-23.4,18.9-42.3,42.3-42.3c23.4,0,42.3,18.9,42.3,42.3c0,0,0,0,0,0
		C298.3,279.4,279.4,298.3,256,298.3z M256,227.5c-15.7,0-28.5,12.7-28.5,28.5s12.7,28.5,28.5,28.5s28.5-12.7,28.5-28.5v0
		C284.4,240.3,271.7,227.6,256,227.5z"/>
	<path class="st0" d="M312.8,444.3c-3.8,0-6.9-3.1-6.9-6.9c0-3,2-5.7,4.8-6.6C370.5,411.7,416.6,363.6,433,303
		c1-3.7,4.8-5.9,8.5-4.9c3.7,1,5.9,4.8,4.9,8.5c-17.6,65.2-67.1,116.9-131.5,137.5C314.2,444.2,313.5,444.3,312.8,444.3L312.8,444.3
		z"/>
	<path class="st0" d="M324.4,389.5c-3.8,0-6.9-3.1-6.9-6.9c0-2.5,1.4-4.9,3.6-6.1c25.6-14,46.1-35.6,58.6-61.9
		c1.6-3.5,5.8-4.9,9.2-3.3c3.5,1.6,4.9,5.8,3.3,9.2c-13.8,28.9-36.4,52.7-64.5,68.1C326.6,389.2,325.5,389.5,324.4,389.5
		L324.4,389.5z"/>
</g>
</svg>
