<?xml version="1.0" encoding="utf-8"?>
<!-- Generator: Adobe Illustrator 24.2.3, SVG Export Plug-In . SVG Version: 6.00 Build 0)  -->
<svg version="1.1" id="Capa_1" xmlns="http://www.w3.org/2000/svg" xmlns:xlink="http://www.w3.org/1999/xlink" x="0px" y="0px"
	 viewBox="0 0 52.7 52.7" style="enable-background:new 0 0 52.7 52.7;" xml:space="preserve">
<style type="text/css">
	.st0{fill:#98ED0C;}
</style>
<g>
	<path class="st0" d="M48.8,4.2h-45C1.7,4.2,0,5.8,0,7.9v27.7c0,2,1.7,3.6,3.8,3.6h21.5v7.4h-6.9c-0.6,0-1,0.4-1,1s0.4,1,1,1H34
		c0.6,0,1-0.4,1-1s-0.4-1-1-1h-6.8v-7.4h21.5c2.1,0,3.8-1.6,3.8-3.6V7.9C52.7,5.8,50.9,4.2,48.8,4.2z M50.7,35.6
		c0,1-0.8,1.7-1.8,1.7h-45c-1.1,0-1.9-0.8-1.9-1.7V7.9c0-1,0.8-1.7,1.8-1.7h45c1,0,1.8,0.8,1.8,1.7v27.7H50.7z"/>
</g>
</svg>
