<?xml version="1.0" encoding="utf-8"?>
<!-- Generator: Adobe Illustrator 24.2.3, SVG Export Plug-In . SVG Version: 6.00 Build 0)  -->
<svg version="1.1" id="Capa_1" xmlns="http://www.w3.org/2000/svg" xmlns:xlink="http://www.w3.org/1999/xlink" x="0px" y="0px"
	 viewBox="0 0 60 60" style="enable-background:new 0 0 60 60;" xml:space="preserve">
<style type="text/css">
	.st0{fill:#98ED0C;}
</style>
<g>
	<g>
		<path class="st0" d="M58.5,33.3c-2-8.3-5.4-16.4-6.4-18.7c0-0.1-0.1-0.6-0.2-0.9c-0.4-1.8-0.7-2.8-1.5-3.2l-7.7-3.2
			c-1-0.5-2.1-0.2-2.9,0.3c-0.9,0.7-1.9,1.2-2.2,1.4H22.8c-0.4-0.1-1.6-0.8-2.4-1.4c-0.9-0.7-1.9-0.8-2.9-0.5l-7.7,3.2
			c-0.8,0.3-1,1.4-1.4,3.2c-0.1,0.3-0.2,0.8-0.2,0.9c-0.5,1-4.5,9.7-6.7,18.9c-2.6,10.9-1.7,18.1,2.7,21.3c1,0.8,2.4,0.6,3.4-0.3
			l9.1-8.8c1.1-1.1,2.5-1.7,4-1.7h18.9c1.5,0,2.9,0.6,4,1.7l9.1,8.8c0.5,0.6,1.2,0.8,1.9,0.8c0.5,0,1.1-0.1,1.5-0.6
			C60.3,51.5,61.1,44.2,58.5,33.3z M29.5,11.4c0.2,0,0.5,0,0.6,0h1.7l0,0c0,0.7-0.3,1.2-0.7,1.7c-0.5,0.5-1,0.6-1.6,0.5
			c-0.8-0.1-1.4-0.9-1.6-1.7c0-0.2,0-0.3,0-0.6L29.5,11.4z M54.9,52.8c-0.3,0.2-0.7,0.1-1-0.1l-9.1-8.8c-1.5-1.5-3.4-2.3-5.3-2.3
			H20.7c-1.9,0-3.8,0.8-5.3,2.3l-9.2,8.8c-0.3,0.2-0.7,0.3-1,0.1c-4.5-3.2-3.5-12-1.8-18.7c2.2-9,6.1-17.5,6.5-18.4
			c0.1-0.3,0.2-0.7,0.4-1.4c0.1-0.5,0.3-1.2,0.4-1.7l7.4-3.1c0.4-0.1,0.8-0.1,1.2,0.2c2.7,1.7,3.2,1.7,3.4,1.7h3c0,0.3,0,0.7,0.1,1
			c0.3,1.8,1.6,3.2,3.2,3.5c0.2,0,0.5,0.1,0.7,0.1c0.9,0,1.9-0.3,2.6-1c0.9-0.9,1.4-2.2,1.4-3.5l0,0h3.9c0.2,0,0.8,0,3.2-1.8
			c0.3-0.2,0.7-0.3,1.1-0.1l7.4,3.1c0.2,0.3,0.3,1.2,0.5,1.7c0.2,0.7,0.2,1,0.4,1.4C51.7,18.8,63.5,46.2,54.9,52.8z"/>
	</g>
</g>
</svg>
